<?xml version="1.0" encoding="utf-8"?>
<svg version="1.1" id="Layer_1" xmlns="http://www.w3.org/2000/svg" xmlns:xlink="http://www.w3.org/1999/xlink" x="0px" y="0px"
	 viewBox="0 0 32 64" style="enable-background:new 0 0 32 64;" xml:space="preserve">
<style type="text/css">
	.st0{fill:#006aa2;}
</style>
<view id="open-view" viewBox="0 0 32 32" />
<view id="close-view" viewBox="0 32 32 32" />
<path class="st0" d="M16,32C7.2,32,0,39.2,0,48s7.2,16,16,16s16-7.2,16-16S24.8,32,16,32z M4,50v-4h24v4H4z"/>
<path class="st0" d="M16,0C7.2,0,0,7.2,0,16s7.2,16,16,16s16-7.2,16-16S24.8,0,16,0z M18,18v10h-4V18H4v-4h10V4h4v10h10v4H18z"/>
</svg>
